<svg width="33" height="33" viewBox="0 0 33 33" fill="none" xmlns="http://www.w3.org/2000/svg">
<mask id="mask0_647_149" style="mask-type:luminance" maskUnits="userSpaceOnUse" x="0" y="0" width="33" height="33">
<path d="M0.914062 0.00854492H32.1271V32.9908H0.914062V0.00854492Z" fill="white"/>
</mask>
<g mask="url(#mask0_647_149)">
<path fill-rule="evenodd" clip-rule="evenodd" d="M0.929688 6.13925C0.929688 6.13925 0.929688 6.13925 0.929688 6.13867C0.93026 6.0006 0.984114 5.86482 1.08552 5.76341L4.61182 2.23711C4.71323 2.13571 4.84844 2.08185 4.98651 2.08128C4.98651 2.08128 4.98708 2.08128 4.98766 2.08128H18.3005L23.0088 0.0651855C23.1422 0.0078939 23.2941 0.0078939 23.4276 0.0651855L28.5523 2.25888C28.7477 2.3431 28.8748 2.53503 28.8748 2.74815V7.16821C28.8748 10.2769 26.7258 12.9925 23.7507 13.7499V15.2698C28.3982 15.5454 32.0872 19.4069 32.0872 24.1225C32.0872 29.0175 28.1134 32.9913 23.219 32.9913C21.3009 32.9913 19.5243 32.3806 18.0725 31.3436H1.46193C1.16802 31.3436 0.929688 31.1058 0.929688 30.8119V6.13925ZM5.51932 3.14519V6.13925C5.51932 6.43315 5.28156 6.67091 4.98766 6.67091H1.99359C1.99359 10.2155 1.99359 30.2802 1.99359 30.2802H16.8396C15.5838 28.9803 14.7221 27.2976 14.4459 25.4253H12.9518C12.6584 25.4253 12.4201 25.1876 12.4201 24.8937C12.4201 24.6003 12.6584 24.362 12.9518 24.362H14.3537C14.352 24.2824 14.3508 24.2027 14.3508 24.1225C14.3508 23.9203 14.3577 23.7198 14.3709 23.521H12.9518C12.6584 23.521 12.4201 23.2826 12.4201 22.9887C12.4201 22.6954 12.6584 22.4571 12.9518 22.4571H14.5072C14.7645 21.1038 15.3305 19.8595 16.128 18.799H12.9518C12.6584 18.799 12.4201 18.5607 12.4201 18.2673C12.4201 17.9734 12.6584 17.7351 12.9518 17.7351H16.8745C16.933 17.7351 16.9891 17.7448 17.0418 17.762C17.3661 17.4475 17.7139 17.157 18.0828 16.894H12.9518C12.6584 16.894 12.4201 16.6557 12.4201 16.3624C12.4201 16.069 12.6584 15.8307 12.9518 15.8307H18.9777C19.1754 15.8307 19.3478 15.9384 19.4395 16.0988C20.4346 15.629 21.5312 15.3386 22.6873 15.2698V13.7504C20.7721 13.2629 19.1989 11.9629 18.3211 10.2688H12.9518C12.6584 10.2688 12.4201 10.0305 12.4201 9.73716C12.4201 9.44383 12.6584 9.2055 12.9518 9.2055H17.88C17.6743 8.55867 17.5638 7.87404 17.5638 7.16821V3.14519H5.51932ZM4.45599 3.89685L2.74526 5.60758H4.45599V3.89685ZM23.219 16.3177C18.9113 16.3177 15.4142 19.8153 15.4142 24.1225C15.4142 28.4303 18.9113 31.9274 23.219 31.9274C27.5268 31.9274 31.0239 28.4303 31.0239 24.1225C31.0239 19.8153 27.5268 16.3177 23.219 16.3177ZM26.0607 28.2063C25.3485 28.467 24.6198 28.7569 23.4785 28.7569H19.7351C18.9737 28.7569 18.3515 28.1335 18.3515 27.3733C18.3515 27.2375 18.3716 27.1069 18.4082 26.9825C17.8588 26.7992 17.4601 26.2784 17.4601 25.6688C17.4601 25.4271 17.5231 25.1985 17.6336 24.9997C17.3478 24.7459 17.1673 24.3758 17.1673 23.9655C17.1673 23.4986 17.401 23.0844 17.7568 22.8335C17.6772 22.6593 17.6325 22.4657 17.6325 22.2623C17.6325 21.5009 18.2553 20.8787 19.0167 20.8787H21.3719C21.1657 20.3161 21.023 19.6074 21.0929 18.9754C21.1852 18.1482 21.6005 17.4526 22.5298 17.2246C22.6684 17.1902 22.8145 17.2132 22.936 17.2882C23.0569 17.3627 23.1434 17.483 23.1749 17.6216C23.5473 19.2384 23.4963 19.5071 24.4737 20.1465C25.2557 20.6575 25.2036 20.6398 25.8011 21.5043C25.8716 21.6063 25.9639 21.6808 26.0847 21.7191C26.1804 21.3324 26.5305 21.0448 26.9458 21.0448H28.3844C28.8703 21.0448 29.2707 21.4436 29.2707 21.9317V28.145C29.2707 28.6331 28.8703 29.0313 28.3844 29.0313H26.9458C26.4783 29.0313 26.0928 28.6663 26.0607 28.2063ZM26.059 22.7991C25.5422 22.7401 25.187 22.4863 24.9263 22.1093C24.4577 21.431 24.5058 21.4378 23.8922 21.0368H23.8916C22.8082 20.3281 22.6432 20.013 22.3081 18.5922C22.2176 18.736 22.1706 18.9101 22.15 19.0929C22.0669 19.8434 22.3763 20.7544 22.6427 21.0626C22.7784 21.2201 22.8105 21.4424 22.724 21.6315C22.6375 21.8205 22.4484 21.942 22.2405 21.942H19.0167C18.8402 21.942 18.6958 22.0858 18.6958 22.2623C18.6958 22.4382 18.8402 22.582 19.0167 22.582H21.239C21.5323 22.582 21.7707 22.8203 21.7707 23.1136C21.7707 23.4075 21.5323 23.6459 21.239 23.6459H18.5509C18.3744 23.6459 18.2306 23.7897 18.2306 23.9655C18.2306 24.1414 18.3744 24.2852 18.5509 24.2852H21.239C21.5323 24.2852 21.7707 24.5236 21.7707 24.8175C21.7707 25.1108 21.5323 25.3491 21.239 25.3491H18.8436C18.6672 25.3491 18.5234 25.4929 18.5234 25.6688C18.5234 25.8453 18.6672 25.9897 18.8436 25.9897H21.239C21.5323 25.9897 21.7707 26.228 21.7707 26.5213C21.7707 26.8147 21.5323 27.053 21.239 27.053H19.7351C19.5592 27.053 19.4154 27.1968 19.4154 27.3733C19.4154 27.5491 19.5592 27.6929 19.7351 27.6929H23.4785C24.6427 27.6929 25.3319 27.3429 26.059 27.0834V22.7991ZM27.1223 22.1082V27.9679H28.2074V22.1082H27.1223ZM23.2184 1.13196L18.6271 3.09878V7.16821C18.6271 9.88383 20.5716 12.2431 23.2184 12.7811C25.867 12.2431 27.8109 9.88383 27.8109 7.16821V3.09878L23.2184 1.13196ZM19.817 7.76633L19.8159 7.76519C19.3123 7.26331 19.3129 6.45034 19.8165 5.94904C20.3172 5.44888 21.1267 5.44831 21.6297 5.94847C21.6303 5.94904 21.6309 5.94904 21.6309 5.94961L22.4038 6.72248L24.8071 4.29618L24.8077 4.2956C25.3061 3.79373 26.118 3.79086 26.6193 4.2893C27.124 4.7906 27.1234 5.60185 26.6261 6.10258C25.1904 7.55263 24.7579 8.00409 23.313 9.44727C22.8117 9.95086 21.9981 9.95029 21.498 9.44727L19.817 7.76633ZM20.5676 7.01295L22.2502 8.69503C22.2502 8.6956 22.2508 8.69617 22.2514 8.69617C22.3361 8.78211 22.4748 8.78211 22.5602 8.69617C22.5607 8.6956 22.5613 8.6956 22.5613 8.69503C24.0045 7.25357 24.4365 6.80211 25.8705 5.35378L25.871 5.35321C25.9558 5.26784 25.9558 5.1292 25.8699 5.04383C25.7845 4.95904 25.647 4.95961 25.5622 5.04498L22.7836 7.85055C22.6839 7.95081 22.5481 8.00753 22.4066 8.0081C22.2651 8.0081 22.1299 7.95196 22.0296 7.85227L20.8804 6.70243C20.7933 6.61649 20.6541 6.61534 20.5676 6.70185C20.5676 6.70185 20.567 6.70243 20.5664 6.703C20.481 6.78836 20.481 6.92643 20.5664 7.0118C20.567 7.01237 20.5676 7.01237 20.5676 7.01295ZM5.85792 7.83737H9.53891C10.0958 7.83737 10.5507 8.29227 10.5507 8.84914V12.5301C10.5507 13.087 10.0958 13.5419 9.53891 13.5419H5.85792C5.30104 13.5419 4.84615 13.087 4.84615 12.5301V8.84914C4.84615 8.29227 5.30104 7.83737 5.85792 7.83737ZM5.90948 8.90071V12.4786H9.48734V8.90071H5.90948ZM6.54828 10.9907C6.34031 10.7833 6.33974 10.4464 6.54714 10.2385C6.75453 10.0311 7.09141 10.0305 7.29938 10.2379L7.51938 10.4579L8.05792 9.79216C8.2424 9.56414 8.57755 9.52862 8.80557 9.7131C9.03359 9.89758 9.06911 10.2327 8.88464 10.4608L7.97542 11.5854C7.88089 11.7028 7.74052 11.7745 7.59042 11.7825C7.43974 11.7899 7.29307 11.7338 7.18594 11.6278L6.54828 10.9907ZM5.85792 14.4626H9.53891C10.0958 14.4626 10.5507 14.9175 10.5507 15.4744V19.1553C10.5507 19.7122 10.0958 20.1671 9.53891 20.1671H5.85792C5.30104 20.1671 4.84615 19.7122 4.84615 19.1553V15.4744C4.84615 14.9175 5.30104 14.4626 5.85792 14.4626ZM5.90948 15.5259V19.1038H9.48734V15.5259H5.90948ZM6.54771 17.6159C6.34031 17.4079 6.34031 17.0711 6.54771 16.8637C6.7551 16.6563 7.09198 16.6563 7.29995 16.8637L7.51995 17.0837L8.05792 16.4185C8.2424 16.1905 8.57755 16.155 8.80557 16.3395C9.03359 16.5239 9.06911 16.8591 8.88464 17.0877L7.97542 18.2123C7.88031 18.3292 7.74052 18.4008 7.58984 18.4088C7.43917 18.4169 7.2925 18.3607 7.18594 18.2541L6.54771 17.6159ZM12.9518 12.1738C12.6584 12.1738 12.4201 11.9354 12.4201 11.6421C12.4201 11.3488 12.6584 11.1104 12.9518 11.1104H16.8745C17.1679 11.1104 17.4062 11.3488 17.4062 11.6421C17.4062 11.9354 17.1679 12.1738 16.8745 12.1738H12.9518ZM5.85792 21.0872H9.53891C10.0952 21.0872 10.5507 21.5444 10.5507 22.1007V25.7817C10.5507 26.3386 10.0958 26.7935 9.53891 26.7935H5.85792C5.30104 26.7935 4.84615 26.3386 4.84615 25.7817V22.1007C4.84615 21.5444 5.30161 21.0872 5.85792 21.0872ZM5.90948 25.7301H9.48734V22.1511H5.90948V25.7301ZM6.54828 24.2423C6.34031 24.0349 6.33974 23.698 6.54714 23.4906C6.75453 23.2826 7.09141 23.2821 7.29938 23.4895L7.51938 23.7095L8.05792 23.0437C8.2424 22.8157 8.57755 22.7802 8.80557 22.9647C9.03359 23.1491 9.06911 23.4843 8.88464 23.7123L7.97542 24.8375C7.88089 24.9544 7.74052 25.026 7.59042 25.034C7.43974 25.0421 7.29307 24.9859 7.18594 24.8794L6.54828 24.2423Z" fill="white"/>
</g>
</svg>
