<svg width="32" height="32" viewBox="0 0 32 32" fill="none" xmlns="http://www.w3.org/2000/svg">
<g clip-path="url(#clip0_651_228)">
<mask id="mask0_651_228" style="mask-type:luminance" maskUnits="userSpaceOnUse" x="16" y="25" width="5" height="7">
<path d="M16.5 25.0312H20.0556V31.9913H16.5V25.0312Z" fill="white"/>
</mask>
<g mask="url(#mask0_651_228)">
<path d="M16.5703 25.0812H19.997V31.9345H16.5703V25.0812Z" fill="white"/>
</g>
<mask id="mask1_651_228" style="mask-type:luminance" maskUnits="userSpaceOnUse" x="11" y="25" width="5" height="7">
<path d="M11.9531 25.0312H15.5087V31.9913H11.9531V25.0312Z" fill="white"/>
</mask>
<g mask="url(#mask1_651_228)">
<path d="M12 25.0813H15.4272V31.9346H12V25.0813Z" fill="white"/>
</g>
<path d="M16.0023 6.80506C15.9434 6.8045 15.8862 6.7945 15.8307 6.77617L9.14844 4.66895V9.23783L16.0023 11.3739L22.8557 9.26672V4.69728L16.1734 6.80506C16.1162 6.81339 16.059 6.81339 16.0023 6.80506Z" fill="white"/>
<mask id="mask2_651_228" style="mask-type:luminance" maskUnits="userSpaceOnUse" x="5" y="0" width="21" height="14">
<path d="M5.70312 0.00830078H25.7565V13.7955H5.70312V0.00830078Z" fill="white"/>
</mask>
<g mask="url(#mask2_651_228)">
<path d="M7.4399 3.13831L16.0071 5.63387L25.716 2.8072L16.0071 -0.0200195L6.29767 2.8072V10.5172L5.72656 10.8028V13.6583H8.01101V10.8028L7.4399 10.5172V3.13831Z" fill="white"/>
</g>
<mask id="mask3_651_228" style="mask-type:luminance" maskUnits="userSpaceOnUse" x="9" y="10" width="14" height="22">
<path d="M9.10938 10.3823H22.9049V31.9912H9.10938V10.3823Z" fill="white"/>
</mask>
<g mask="url(#mask3_651_228)">
<path d="M15.9945 12.5163C15.939 12.5252 15.884 12.5252 15.829 12.5163L9.14062 10.4319V31.9347H10.854V24.5102C10.854 24.4724 10.8578 24.4352 10.8651 24.3986C10.8723 24.3619 10.8834 24.3258 10.8978 24.2913C10.9123 24.2569 10.9295 24.2241 10.9506 24.1924C10.9712 24.1613 10.9951 24.1324 11.0217 24.1063C11.0478 24.0797 11.0767 24.0558 11.1078 24.0352C11.139 24.0141 11.1723 23.9969 11.2067 23.9824C11.2412 23.968 11.2773 23.9569 11.314 23.9497C11.3506 23.9424 11.3878 23.9391 11.4251 23.9391H20.5634C20.6006 23.9391 20.6378 23.9424 20.6745 23.9497C20.7117 23.9569 20.7473 23.968 20.7817 23.9824C20.8167 23.9969 20.8495 24.0141 20.8806 24.0352C20.9117 24.0558 20.9406 24.0797 20.9673 24.1063C20.9934 24.1324 21.0173 24.1613 21.0384 24.1924C21.059 24.2241 21.0767 24.2569 21.0912 24.2913C21.1051 24.3258 21.1162 24.3619 21.1234 24.3986C21.1306 24.4352 21.1345 24.4724 21.1345 24.5102V31.9347H22.8478V10.4319L16.1601 12.5163C16.1045 12.5252 16.0495 12.5252 15.9945 12.5163ZM14.8523 22.2252H11.4251V19.9408H14.8523V22.2252ZM14.8523 17.6563H11.4251V15.3719H14.8523V17.6563ZM17.1367 15.3719H20.5634V17.6563H17.1367V15.3719ZM17.1367 19.9408H20.5634V22.2252H17.1367V19.9408Z" fill="white"/>
</g>
<mask id="mask4_651_228" style="mask-type:luminance" maskUnits="userSpaceOnUse" x="23" y="18" width="9" height="14">
<path d="M23.8984 18H31.9712V31.7867H23.8984V18Z" fill="white"/>
</mask>
<g mask="url(#mask4_651_228)">
<path d="M23.9922 18.0227V31.7299H31.9877V18.0227H23.9922ZM29.7033 26.5899H26.2766V24.3055H29.7033V26.5899ZM29.7033 22.0205H26.2766V19.736H29.7033V22.0205Z" fill="white"/>
</g>
<mask id="mask5_651_228" style="mask-type:luminance" maskUnits="userSpaceOnUse" x="0" y="18" width="9" height="14">
<path d="M0.0078125 18.2046H8.11448V31.9913H0.0078125V18.2046Z" fill="white"/>
</mask>
<g mask="url(#mask5_651_228)">
<path d="M0.0078125 31.9345H8.00337V18.2273H0.0078125V31.9345ZM2.29226 19.9406H5.71892V22.2251H2.29226V19.9406ZM2.29226 24.5101H5.71892V26.7945H2.29226V24.5101Z" fill="white"/>
</g>
</g>
<defs>
<clipPath id="clip0_651_228">
<rect width="32" height="32" fill="white"/>
</clipPath>
</defs>
</svg>
