<svg width="27" height="29" viewBox="0 0 27 29" fill="none" xmlns="http://www.w3.org/2000/svg">
<path d="M10.945 11.7364L8.66279 10.6978L8.64063 12.6034C8.63711 12.9508 9.74878 13.2473 11.1243 13.2619C12.4992 13.2801 13.6185 13.0097 13.6225 12.6618L13.6477 10.6978L11.373 11.7329C11.2521 11.7878 11.0618 11.7878 10.945 11.7364Z" fill="white"/>
<path d="M15.6259 9.60426L11.3942 7.55614C11.2955 7.50831 11.1274 7.50831 11.0287 7.55614L6.74161 9.62641C6.72701 9.63346 6.71594 9.64101 6.70536 9.64806C6.68674 9.66266 6.67969 9.67726 6.67969 9.68834C6.67969 9.71049 6.70536 9.73214 6.74161 9.75077L8.66186 10.6248L10.9698 11.6745C11.0725 11.7219 11.2406 11.7219 11.3428 11.6745L13.6472 10.6283L15.1068 9.96626V10.0398L15.0993 10.6172H15.0776C15.0555 10.6172 15.0338 10.6359 15.0338 10.6616V10.7527C15.0338 10.7748 15.0519 10.7965 15.0776 10.7965H15.0993C15.0993 10.7965 15.0006 11.1514 14.9935 11.5064C14.9935 11.5648 14.9935 11.6232 14.9895 11.6816C14.9895 11.7954 14.9895 11.7697 14.986 11.8503C14.986 11.9122 14.986 11.9892 14.986 11.9963C14.986 12.0476 14.986 12.0657 14.986 12.0698C14.986 12.0698 14.986 12.0698 14.986 12.0733C14.986 12.0768 14.986 12.0879 14.986 12.1136C14.986 12.1498 14.986 12.172 14.986 12.1866C14.986 12.1866 14.986 12.1866 14.986 12.1901C14.986 12.1941 14.986 12.1976 14.986 12.2047C14.986 12.2087 14.986 12.2158 14.986 12.2193C14.986 12.2742 14.9935 12.1976 15.0081 12.2193C15.0227 12.0476 15.0409 12.245 15.0665 12.2193C15.0887 12.1941 15.1139 12.245 15.1395 12.2268C15.1652 12.2193 15.1909 12.256 15.213 12.2193C15.2347 12.2999 15.2568 12.2304 15.2714 12.2233C15.286 12.3109 15.2931 12.2999 15.2931 12.2193C15.2931 12.2158 15.2931 12.2087 15.2931 12.1941C15.2931 12.1941 15.2931 12.1941 15.2931 12.1901C15.2931 12.183 15.2931 12.1574 15.2931 12.1352C15.2931 12.1317 15.2931 12.1282 15.2931 12.1136C15.2931 12.1095 15.2931 12.106 15.2931 12.1025C15.2931 12.0914 15.2931 12.0803 15.2931 12.0622C15.2931 12.0622 15.2931 12.0547 15.2931 12.0441C15.2931 12.0295 15.2931 12.0109 15.2931 12.0003C15.2931 11.9963 15.2931 11.9927 15.2931 11.9892C15.2931 11.9781 15.2931 11.9635 15.2931 11.9525C15.2931 11.9525 15.2931 11.9414 15.2931 11.9303C15.2931 11.9197 15.2931 11.9051 15.2931 11.8941C15.2931 11.8795 15.2931 11.8649 15.2931 11.8573C15.2931 11.8538 15.2931 11.8462 15.2931 11.8427C15.2931 11.8024 15.2931 11.7989 15.2931 11.7697C15.2931 11.7516 15.2931 11.7073 15.2931 11.6891C15.2931 11.6418 15.2931 11.6051 15.2931 11.6015C15.2931 11.5723 15.2931 11.5426 15.2931 11.5134C15.2971 11.159 15.2055 10.8005 15.2055 10.8005H15.2276C15.2493 10.8005 15.2714 10.7819 15.2714 10.7562V10.6651C15.2714 10.6429 15.2528 10.6213 15.2276 10.6213H15.2055L15.213 9.98841V9.91541L15.6153 9.73214C15.6556 9.71402 15.6772 9.69187 15.6772 9.67022C15.6883 9.64806 15.6662 9.62239 15.6259 9.60426Z" fill="white"/>
<path d="M18.0156 11.5245L19.3287 11.4036V8.90592L18.0267 8.66778C17.9356 8.2217 17.8002 7.7862 17.6209 7.36228C17.4598 6.98518 17.2695 6.62721 17.05 6.28686L17.8988 5.26632L16.1322 3.49964L15.0351 4.25686C14.6837 4.02627 14.3106 3.82538 13.9194 3.66075C13.5131 3.48856 13.0962 3.35715 12.6683 3.26552L12.5439 1.93787H10.0457L9.80451 3.25445C9.35844 3.34608 8.92293 3.48151 8.50254 3.66075C8.12946 3.81783 7.77099 4.00814 7.43417 4.22766L6.40306 3.37176L4.63637 5.13844L5.40064 6.24306C5.16653 6.5975 4.96564 6.97057 4.80101 7.3658C4.63285 7.76807 4.50094 8.18143 4.40931 8.60585L3.07812 8.73021V11.2284L4.39471 11.4661C4.48634 11.9157 4.62177 12.3547 4.80453 12.7827C4.96161 13.1522 5.1484 13.5072 5.36389 13.8435L4.51554 14.8675L6.28222 16.6342L7.37576 15.877C7.73071 16.1146 8.11083 16.316 8.50958 16.4842C8.91186 16.6564 9.32521 16.7843 9.74964 16.8754L9.87399 18.1925H12.3722L12.6099 16.8905C13.06 16.7989 13.5025 16.6634 13.9305 16.4807C14.3035 16.3236 14.662 16.1333 14.9983 15.9138L16.0153 16.7551L17.7815 14.9884L17.0283 13.9019C17.2624 13.5474 17.4633 13.1703 17.632 12.7756C17.7926 12.3693 17.9245 11.9524 18.0156 11.5245ZM11.2092 15.9465C7.96835 15.9465 5.32764 13.3093 5.32764 10.0649C5.32764 6.82104 7.96483 4.18386 11.2092 4.18386C14.4531 4.18386 17.0903 6.82457 17.0903 10.0689C17.0903 13.3133 14.4531 15.9465 11.2092 15.9465Z" fill="white"/>
<mask id="mask0_651_231" style="mask-type:luminance" maskUnits="userSpaceOnUse" x="0" y="16" width="13" height="13">
<path d="M0.078125 16.369H12.8004V28.9921H0.078125V16.369Z" fill="white"/>
</mask>
<g mask="url(#mask0_651_231)">
<path d="M11.7753 23.1266C11.8045 22.7757 11.7969 22.4207 11.7567 22.0658C11.7204 21.7511 11.6545 21.4404 11.5669 21.1404L12.4187 20.5624L11.4863 18.8617L10.506 19.1874C10.2936 18.9387 10.0595 18.7081 9.8037 18.4997C9.53686 18.2837 9.25491 18.0939 8.95535 17.9328L9.15271 16.9157L7.29087 16.3745L6.82616 17.3034C6.47524 17.2742 6.1203 17.2818 5.76937 17.322C5.4547 17.3583 5.15111 17.4207 4.85104 17.5124L4.26601 16.6524L2.56528 17.5854L2.89455 18.5727C2.64181 18.7851 2.41172 19.0228 2.20328 19.2785C1.98729 19.5424 1.80101 19.8203 1.64342 20.1163L0.622882 19.919L0.078125 21.7808L1.00703 22.245C0.97783 22.5999 0.985382 22.9584 1.02516 23.3169C1.06191 23.6275 1.12434 23.9311 1.21194 24.2277L0.356042 24.8057L1.28898 26.5064L2.26873 26.1806C2.48472 26.4329 2.72236 26.667 2.98215 26.8795C3.24547 27.0949 3.52339 27.2817 3.81993 27.4388L3.62609 28.4483L5.48743 28.9895L5.94861 28.0717C6.30356 28.1009 6.66153 28.0974 7.02 28.0536C7.33467 28.0168 7.64179 27.9549 7.93833 27.8632L8.51229 28.7116L10.2135 27.7792L9.88778 26.806C10.14 26.594 10.3706 26.3564 10.5826 26.1001C10.7986 25.8332 10.9889 25.5518 11.1495 25.2517L12.1554 25.4456L12.6966 23.5837L11.7753 23.1266ZM10.7729 23.9679C10.067 26.382 7.52851 27.7756 5.11436 27.0733C2.70071 26.371 1.30358 23.8289 2.00944 21.4148C2.71531 19.0006 5.25382 17.607 7.66747 18.3094C10.0816 19.0152 11.4752 21.5537 10.7729 23.9679Z" fill="white"/>
</g>
<path d="M8.05021 21.016C7.83472 20.8005 7.58198 20.6283 7.30054 20.5115C7.00802 20.3871 6.7009 20.3247 6.38271 20.3247C6.06451 20.3247 5.75689 20.3871 5.46438 20.5115C5.18293 20.6283 4.93069 20.8005 4.7147 21.016C4.49872 21.232 4.32703 21.4842 4.20972 21.7661C4.08536 22.0587 4.02344 22.3658 4.02344 22.684C4.02344 23.0022 4.08536 23.3093 4.20972 23.6018C4.32703 23.8838 4.49872 24.136 4.7147 24.352C4.93069 24.5675 5.18293 24.7397 5.46438 24.8565C5.75689 24.9808 6.06451 25.0432 6.38271 25.0432C6.7009 25.0432 7.00802 24.9808 7.30054 24.8565C7.58198 24.7397 7.83472 24.5675 8.05021 24.352C8.2662 24.136 8.43788 23.8838 8.55519 23.6018C8.67955 23.3093 8.74148 23.0022 8.74148 22.684C8.74148 22.3658 8.67955 22.0587 8.55519 21.7661C8.43436 21.4842 8.2662 21.232 8.05021 21.016ZM6.38271 24.4396C5.41302 24.4396 4.6271 23.6532 4.6271 22.684C4.6271 21.7148 5.41302 20.9284 6.38271 20.9284C7.35189 20.9284 8.13832 21.7148 8.13832 22.684C8.13429 23.6532 7.34837 24.4396 6.38271 24.4396Z" fill="white"/>
<mask id="mask1_651_231" style="mask-type:luminance" maskUnits="userSpaceOnUse" x="17" y="0" width="10" height="10">
<path d="M17.3125 0.00756836H26.9379V9.53779H17.3125V0.00756836Z" fill="white"/>
</mask>
<g mask="url(#mask1_651_231)">
<path d="M26.2314 5.10526C26.2535 4.83842 26.2495 4.57158 26.2168 4.30423C26.1876 4.06659 26.1397 3.83248 26.0702 3.60592L26.7142 3.17041L26.0118 1.88656L25.2692 2.13527C25.1086 1.94899 24.9329 1.77328 24.7391 1.61619C24.5382 1.45156 24.3257 1.30907 24.0992 1.18824L24.2492 0.419943L22.8445 0.0106201L22.4931 0.71246C22.2262 0.690811 21.9594 0.694335 21.6926 0.727061C21.4544 0.756766 21.2243 0.804092 20.9973 0.870047L20.5623 0.219058L19.2744 0.924926L19.5231 1.67107C19.3333 1.83168 19.1611 2.01092 19.0005 2.20475C18.8394 2.40262 18.6969 2.61458 18.5761 2.83762L17.8078 2.68758L17.3984 4.09227L18.1003 4.44319C18.0786 4.71053 18.0822 4.9809 18.1154 5.25177C18.1406 5.48588 18.1884 5.71647 18.2579 5.93951L17.6104 6.37451L18.3163 7.65836L19.0554 7.41317C19.216 7.60348 19.3952 7.78272 19.5931 7.94031C19.7904 8.10091 20.0024 8.2439 20.2254 8.36423L20.0794 9.12498L21.4836 9.5348L21.8315 8.84354C22.0984 8.86569 22.3687 8.86166 22.6396 8.82894C22.8772 8.79974 23.1078 8.75191 23.3344 8.68645L23.7664 9.32637L25.0502 8.6205L24.805 7.88543C24.9953 7.72432 25.1705 7.54508 25.3281 7.35125C25.4928 7.14986 25.6352 6.93789 25.7561 6.71133L26.5168 6.85734L26.9261 5.45316L26.2314 5.10526ZM25.4741 5.74164C24.944 7.56723 23.0273 8.61697 21.2022 8.08631C19.3771 7.55616 18.3273 5.63944 18.8575 3.81435C19.3882 1.98927 21.3044 0.939526 23.13 1.46968C24.9551 2.00387 26.0048 3.92059 25.4741 5.74164Z" fill="white"/>
</g>
<path d="M22.1659 3.01672C21.6977 3.01672 21.2551 3.19948 20.9223 3.53278C20.5895 3.86558 20.4062 4.3041 20.4062 4.77636C20.4062 5.24811 20.5895 5.68664 20.9223 6.01994C21.2551 6.35273 21.6936 6.53549 22.1659 6.53549C22.6341 6.53549 23.0767 6.35273 23.4095 6.01994C23.7423 5.68664 23.925 5.24811 23.925 4.77636C23.925 4.3041 23.7423 3.86558 23.4095 3.53278C23.0767 3.19948 22.6376 3.01672 22.1659 3.01672ZM22.1659 5.92478C21.5295 5.92478 21.0134 5.40872 21.0134 4.77233C21.0134 4.13594 21.5295 3.62039 22.1659 3.62039C22.8023 3.62039 23.3178 4.13594 23.3178 4.77233C23.3178 5.40872 22.8023 5.92478 22.1659 5.92478Z" fill="white"/>
</svg>
