<svg width="38" height="28" viewBox="0 0 38 28" fill="none" xmlns="http://www.w3.org/2000/svg">
<path d="M29.3114 22.5672L28.9135 22.4597C26.5194 24.427 23.4649 25.5775 20.1953 25.5775C13.8231 25.5775 8.45819 21.2286 6.89663 15.3419C6.57007 15.3822 6.23955 15.402 5.90507 15.402C5.72167 15.402 5.53497 15.394 5.35156 15.3822C6.96458 22.0889 13.0142 27.079 20.1993 27.079C23.9669 27.079 27.4793 25.6976 30.1796 23.3516C29.8253 23.1682 29.5304 22.8938 29.3114 22.5672Z" fill="white"/>
<mask id="mask0_651_232" style="mask-type:luminance" maskUnits="userSpaceOnUse" x="9" y="0" width="23" height="23">
<path d="M9.8125 0.920898H31.0925V22.8666H9.8125V0.920898Z" fill="white"/>
</mask>
<g mask="url(#mask0_651_232)">
<path d="M13.3472 5.43274C13.4151 5.46902 13.4903 5.51652 13.5781 5.58448C13.6341 5.64385 13.6618 6.0984 13.6262 6.56416V6.58395L13.6341 6.60375C13.642 6.61166 14.0319 7.5676 13.6618 8.33222C13.2594 9.15291 13.3353 10.479 13.5385 10.7739C13.7179 11.0325 14.6178 12.1876 14.7491 12.3189C14.8526 12.4146 15.1515 13.263 15.1871 13.3784C15.2148 13.486 15.7967 14.207 16.4102 14.1833C16.7645 14.1714 17.1828 14.374 17.4572 14.5099C17.601 14.5771 17.696 14.6253 17.76 14.6332C17.7877 14.6411 17.824 14.7012 17.8636 14.7685C17.9514 14.9202 18.0826 15.1432 18.4171 15.3299C18.5049 15.3781 18.5966 15.4335 18.6922 15.4816C19.0148 15.6604 19.4568 15.9039 19.4925 15.9791C19.4845 16.0074 19.4166 16.0826 19.3691 16.1427C19.1699 16.3696 18.8354 16.7437 18.931 17.2576C19.0623 17.9628 20.0539 18.7954 20.3725 19.0105C20.5836 19.1457 20.4801 20.5872 20.3646 20.8504C20.325 20.9336 20.3092 21.053 20.3092 21.1928C20.2729 21.1928 20.2413 21.2008 20.2056 21.2008C16.3383 21.2008 13.0087 18.8429 11.5791 15.4935C11.5111 15.5014 11.4353 15.5054 11.3601 15.5054H10.6073C10.3678 15.5054 10.1369 15.4579 9.92188 15.3701C11.3917 19.6352 15.4464 22.7062 20.2056 22.7062C22.8181 22.7062 25.2156 21.778 27.0958 20.2369C27.1235 20.1056 27.1551 19.9823 27.2112 19.8661L27.3544 19.5237C27.6097 18.9623 28.0873 18.5243 28.6606 18.329L27.677 18.3692H27.5932C27.39 18.3692 27.1914 18.3329 27.0041 18.2657C25.7255 19.6115 24.0485 20.5833 22.169 20.9857C22.2567 20.8821 22.3326 20.7944 22.3484 20.7587C22.3682 20.739 22.4559 20.6908 22.5193 20.6552C22.671 20.5753 22.834 20.4836 22.9098 20.3682C23.0134 20.2052 23.332 19.8701 23.4752 19.8028C23.6467 19.7151 24.7656 18.7037 24.8375 18.5401C25.0163 18.1298 25.2558 17.6719 25.391 17.5644C25.6378 17.3572 25.4108 16.999 25.327 16.8598L25.3073 16.8314C25.2116 16.6724 24.5743 16.6045 24.4786 16.6203C24.3632 16.6203 23.8216 16.3261 23.7899 16.2304C23.7899 16.047 23.272 15.545 23.1289 15.545C23.0688 15.545 22.7383 15.4698 22.5674 15.2666C22.3642 15.0073 21.6155 14.8443 21.4043 14.8443C21.2051 14.8443 20.9063 14.8041 20.6991 14.7091C20.5084 14.6214 20.1938 14.7447 19.8672 14.8879C19.7992 14.9242 19.7438 14.944 19.7115 14.9558C19.604 14.9835 18.9865 14.8523 18.8354 14.7922C18.7958 14.7566 18.776 14.5138 18.7674 14.3904C18.7516 14.2348 18.7397 14.1351 18.712 14.0837C18.6559 13.9999 18.5207 13.9603 18.2337 13.8844C18.1585 13.8726 18.0628 13.8449 18.0233 13.8284C18.0312 13.7809 18.0628 13.7129 18.0906 13.6496C18.1862 13.4226 18.2463 13.2669 18.1941 13.1634C18.1743 13.1277 18.1387 13.104 18.0985 13.0882C17.9553 13.0519 17.764 13.1957 17.5568 13.3468C17.4691 13.4147 17.3299 13.5183 17.2903 13.5183C17.1669 13.5183 16.9275 13.4226 16.6332 13.2432C16.4617 13.1396 16.6609 12.5861 16.7487 12.3268C16.7962 12.1956 16.8318 12.0999 16.8364 12.0405C16.8443 11.9805 17.1505 11.8888 17.601 11.8888C17.7244 11.8888 17.8874 11.8611 18.051 11.8334C18.202 11.8136 18.3538 11.7852 18.4488 11.7852C18.5088 11.7852 18.6322 11.9567 18.7001 12.0603C18.8235 12.2318 18.9192 12.3671 19.0425 12.3394C19.222 12.3031 19.2061 12.0801 19.1936 11.9171C19.1936 11.8611 19.1857 11.8096 19.1936 11.7812C19.2061 11.6777 19.441 11.2878 19.6317 11.1723C19.8593 11.0364 20.1575 10.6063 20.0783 10.3912C20.0862 10.2962 20.4801 10.0369 20.612 9.94524C20.6674 9.90566 20.7195 9.87003 20.7552 9.84166C20.7948 9.81395 20.8429 9.78625 20.8904 9.75854C21.0257 9.68267 21.2051 9.59493 21.2051 9.36007C21.2051 9.21691 21.6352 9.15687 21.8899 9.11333C21.9499 9.10541 22.006 9.10145 22.0614 9.09288C22.233 9.05725 22.32 9.01767 22.3642 8.9418C22.4197 8.84614 22.3722 8.74257 22.324 8.62711C22.3121 8.59149 22.2884 8.55916 22.2765 8.51958C22.1927 8.30847 22.2409 8.15739 22.4315 8.02149C22.5193 7.96211 22.6829 7.93836 22.8538 7.91857C23.0253 7.89812 23.2245 7.87833 23.4079 7.80246C23.5392 7.74704 23.6065 7.68701 23.6269 7.60388C23.6626 7.49635 23.5867 7.40069 23.5194 7.30899C23.491 7.27336 23.4713 7.24104 23.4515 7.20541C23.3558 7.02201 23.1928 6.87885 23.0767 6.78715C23.0213 6.73965 22.9613 6.47246 22.9257 6.31347C22.898 6.20593 22.8782 6.11423 22.8577 6.0542C22.8379 5.99878 22.7904 5.95062 22.7264 5.93083C22.5753 5.87541 22.3524 5.95062 22.2204 6.01857C22.2085 5.98295 22.2006 5.93083 22.1927 5.8952C22.1808 5.79163 22.165 5.70388 22.1089 5.64781C22.0733 5.61218 22.0014 5.54423 21.9064 5.46507C21.7705 5.33378 21.5996 5.186 21.4881 5.07451C21.4281 5.00722 21.3522 4.99864 21.3087 5.00722C21.1536 5.02701 21.0217 5.21767 20.8983 5.41691C20.8865 5.43736 20.8706 5.46507 20.8588 5.47694C20.6595 5.77579 20.6318 6.00274 20.775 6.11423C20.7829 6.11423 20.7948 6.16965 20.7631 6.27323C20.6991 6.42496 20.5916 6.54041 20.5322 6.54041H20.5124C20.3409 6.54041 20.3013 6.77923 20.2531 7.01805C20.2333 7.10579 20.2056 7.245 20.1779 7.29711C20.1298 7.25687 20.0902 7.11767 20.0902 6.69545V6.64003C20.0902 6.58395 20.0783 6.54437 20.042 6.51666C19.9866 6.46059 19.9068 6.4685 19.8349 6.47642C19.7478 6.48434 19.7036 6.48434 19.6838 6.44871C19.5802 6.28906 19.0821 6.09444 18.8835 6.02649C18.875 5.75138 18.875 5.47298 18.875 5.43736C18.939 5.34961 19.7234 4.8159 19.8989 4.75982C20.1535 4.67604 20.775 4.25447 20.8983 4.16673C21.0059 4.09086 21.0217 4.00708 21.0138 3.9477C20.9861 3.74847 20.6318 3.60465 20.4801 3.54923C20.3567 3.28204 20.1779 3.29062 19.9543 3.29062C19.8388 3.29062 19.7155 3.29854 19.5565 3.27017C18.9746 3.17451 18.4772 3.1468 18.0787 3.21079C17.8036 3.24642 17.4612 3.17451 17.1986 3.12305C17.0555 3.09534 16.9393 3.06763 16.8443 3.06302C17.8834 2.66125 19.0188 2.42638 20.2017 2.42638C21.4881 2.42638 22.7106 2.685 23.8255 3.15868C23.8539 3.26225 23.8856 3.36187 23.9291 3.46149C24.0525 3.72868 24.2636 4.20632 24.2557 4.55663C24.2557 4.9076 24.3038 5.28166 24.2636 5.3892C24.224 5.49673 24.9688 6.33326 25.1324 6.35305C25.2954 6.37284 25.399 6.26927 25.5025 6.10632C25.6061 5.9427 25.7572 5.75138 26.0442 5.52444C26.2909 5.33378 26.8847 5.39316 27.0476 5.41691C27.3544 5.74347 27.6414 6.08652 27.896 6.45663C27.8406 6.50413 27.7885 6.54437 27.7449 6.58791C27.6136 6.7192 27.231 7.10184 27.2785 7.39673C27.3188 7.68305 27.6334 8.0459 28.0154 8.24513C28.3981 8.44767 28.4376 8.83427 28.4376 8.8943C28.4376 8.96159 28.9793 9.29607 28.9793 9.29607C28.9793 9.29607 28.7523 9.74666 28.6448 9.74666C28.5293 9.74666 28.4416 10.1966 28.4416 10.3754C28.4416 10.5548 28.6685 10.8695 28.908 11.0529C29.1389 11.2357 29.5169 10.7382 29.5169 10.7303C29.5532 11.0166 29.573 11.3036 29.577 11.5985C29.3461 11.5866 28.9278 11.7694 28.8044 11.8769C28.6488 12.0128 28.3064 13.1079 28.1474 13.2234C28.1348 13.2353 28.1111 13.263 28.0913 13.3111C28.1513 13.2907 28.2147 13.2749 28.2747 13.263L31.0422 12.757C31.0706 12.4429 31.0825 12.1283 31.0825 11.8057C31.0825 5.8035 26.1992 0.920898 20.1977 0.920898C15.7406 0.920898 11.9057 3.61322 10.2247 7.45611L11.6827 7.88625C12.1089 6.98638 12.6782 6.15382 13.3472 5.43274Z" fill="white"/>
</g>
<mask id="mask1_651_232" style="mask-type:luminance" maskUnits="userSpaceOnUse" x="27" y="10" width="11" height="13">
<path d="M27.3672 10.3688H37.9669V22.8666H27.3672V10.3688Z" fill="white"/>
</mask>
<g mask="url(#mask1_651_232)">
<path d="M37.8129 18.9306L35.3237 14.9914L36.2916 12.7774C36.5785 12.1242 36.5746 11.3913 36.2995 10.75C36.188 10.4828 35.8733 10.3476 35.6028 10.4433C34.9457 10.6781 34.4041 11.1723 34.1211 11.8254L33.1533 14.0394L28.5689 14.8799C28.3023 14.9281 28.0793 15.1068 27.9718 15.3542L27.4579 16.5246C27.4143 16.6242 27.4895 16.7357 27.5971 16.7278L32.1175 16.5332L31.0626 19.6193L29.3058 19.8502C29.1065 19.8786 28.9396 20.0059 28.8598 20.1847L28.7087 20.5278C28.6724 20.6109 28.7166 20.7026 28.8044 20.7264L30.5606 21.2047C30.5447 21.5075 30.7037 21.8017 30.9947 21.9297C31.2856 22.057 31.6122 21.9772 31.8233 21.7582L33.3644 22.726C33.4402 22.7735 33.5399 22.7418 33.5755 22.662L33.7266 22.3196C33.8064 22.1368 33.7866 21.9257 33.6711 21.7621L32.6433 20.3127L34.193 17.4409L37.1123 20.8979C37.1835 20.9817 37.3154 20.9619 37.359 20.8623L37.8729 19.6913C37.9804 19.4445 37.9607 19.1575 37.8129 18.9306Z" fill="white"/>
</g>
<path d="M7.92092 13.4702L9.11172 13.1199C9.43036 13.0203 9.65335 12.7254 9.65335 12.3909V10.7145L10.7406 10.3919V12.0683H10.6845C10.6014 12.0683 10.5334 12.1362 10.5334 12.2194V13.0005C10.5334 13.0836 10.6014 13.1516 10.6845 13.1516H10.7168L10.4694 13.6417C10.418 13.7413 10.4899 13.8568 10.6014 13.8568H11.3541C11.4656 13.8568 11.5369 13.7374 11.4854 13.6417L11.2347 13.1516H11.2664C11.3502 13.1516 11.4174 13.0836 11.4174 13.0005V12.2194C11.4174 12.1362 11.3502 12.0683 11.2664 12.0683H11.2103V10.2521L11.4016 10.1967C11.7321 10.101 11.7321 9.62666 11.4016 9.52704L6.61467 8.10534C6.37123 8.03409 6.1245 7.9978 5.87776 7.9978C5.63102 7.9978 5.38363 8.03409 5.14481 8.10534L0.349948 9.52308C0.0187674 9.61874 0.0187674 10.0931 0.349948 10.1927L2.17342 10.7343V12.3869C2.17342 12.7254 2.39707 13.0203 2.71505 13.1159L3.90651 13.4662C5.21672 13.8568 6.61071 13.8568 7.92092 13.4702Z" fill="white"/>
</svg>
